<svg width="180" height="180" viewBox="0 0 180 180" xmlns="http://www.w3.org/2000/svg">
<rect width="180" height="180" fill="#ffffff"/>
<g transform="translate(40,40) scale(3.125)">
<path d="M19.7968 5.30568V28.518C19.7968 29.6013 20.0953 30.3198 20.6922 30.6735C21.2891 31.0493 22.1181 31.2372 23.1792 31.2372V31.9336C22.6486 31.9115 21.897 31.8783 20.9243 31.8341C19.9516 31.812 18.9347 31.8009 17.8735 31.8009C17.0777 31.8009 16.2929 31.812 15.5191 31.8341C14.7675 31.8783 14.2038 31.9115 13.8279 31.9336V31.2372C14.6901 31.2372 15.298 31.0714 15.6518 30.7398C16.0276 30.4082 16.2155 29.7781 16.2155 28.8497V5.76993C16.9008 5.74782 17.5419 5.70361 18.1388 5.63729C18.7357 5.57097 19.2884 5.46043 19.7968 5.30568ZM5.57097 8.35645C6.47735 8.35645 7.31742 8.48909 8.09117 8.75438C8.88702 8.99755 9.53918 9.36232 10.0476 9.84867C10.5119 10.1582 10.8767 10.6003 11.1419 11.1751C11.4072 11.7278 11.5399 12.2804 11.5399 12.8331C11.5399 13.3858 11.4072 13.8169 11.1419 14.1264C10.8767 14.4138 10.5229 14.5575 10.0808 14.5575C9.63866 14.5575 9.28495 14.4027 9.01966 14.0932C8.77648 13.7616 8.6549 13.3747 8.6549 12.9326C8.6549 12.5789 8.74332 12.181 8.92018 11.7388C9.09703 11.2967 9.35126 10.8545 9.68287 10.4124C9.35126 10.0145 8.86491 9.68287 8.22381 9.41759C7.60481 9.1523 6.93055 9.01966 6.20101 9.01966C5.36095 9.01966 4.65353 9.22968 4.07875 9.64971C3.52607 10.0476 3.24973 10.6445 3.24973 11.4404C3.24973 12.0815 3.43764 12.6452 3.81346 13.1316C4.21138 13.6179 4.7309 14.0711 5.372 14.4911C6.01311 14.9112 6.69843 15.3754 7.42796 15.8839C8.2017 16.4145 8.92018 16.9561 9.58339 17.5088C10.2466 18.0393 10.7772 18.6362 11.1751 19.2994C11.573 19.9626 11.772 20.7474 11.772 21.6538C11.772 22.6707 11.4956 23.5329 10.943 24.2403C10.4124 24.9478 9.70498 25.4894 8.8207 25.8652C7.93642 26.2189 6.96371 26.3958 5.90257 26.3958C5.372 26.3958 4.86354 26.3405 4.37719 26.23C3.89083 26.1415 3.4708 26.0199 3.11709 25.8652C2.85181 25.7326 2.60863 25.5999 2.38756 25.4673C2.18859 25.3125 1.96753 25.1688 1.72435 25.0362C1.50328 24.8814 1.30432 24.9146 1.12746 25.1357C0.950603 25.3346 0.817961 25.6773 0.729533 26.1636H0C0.044214 25.4562 0.0773717 24.594 0.0994787 23.5771C0.121586 22.5602 0.132644 21.2117 0.132644 19.5315H0.862171C0.994813 20.659 1.21589 21.698 1.52539 22.6486C1.83488 23.5771 2.28808 24.3177 2.88497 24.8704C3.48186 25.4231 4.26666 25.6994 5.23936 25.6994C6.12364 25.6994 6.83106 25.4562 7.36163 24.9699C7.8922 24.4835 8.15749 23.7982 8.15749 22.9139C8.15749 21.897 7.82588 21.079 7.16267 20.46C6.49946 19.8189 5.62623 19.1336 4.54299 18.4041C3.79135 17.8735 3.07287 17.354 2.38756 16.8455C1.72435 16.315 1.18273 15.7291 0.762693 15.088C0.342659 14.4469 0.132644 13.6732 0.132644 12.7668C0.132644 11.772 0.38687 10.954 0.895331 10.3129C1.4259 9.64971 2.11122 9.16336 2.95129 8.85386C3.79135 8.52225 4.66458 8.35645 5.57097 8.35645ZM12.5678 0C13.7395 0 14.7343 0.37582 15.5523 1.12746C16.3702 1.8791 16.7792 3.1392 16.7792 4.90776V7.49428C16.7792 7.49428 16.6797 7.52744 16.4808 7.59376C16.3039 7.63797 16.2155 7.66008 16.2155 7.66008V5.07356C16.2155 3.6366 15.8949 2.53125 15.2538 1.75751C14.6127 0.983763 13.6953 0.596889 12.5015 0.596889C11.573 0.596889 10.7551 0.840067 10.0476 1.32642C9.36232 1.81278 9.01966 2.65284 9.01966 3.84662C9.01966 4.46562 9.11914 5.0404 9.3181 5.57097C9.51707 6.10154 9.73814 6.61 9.98131 7.09635C10.2245 7.58271 10.4013 8.09117 10.5119 8.62174C10.6224 9.1523 10.5782 9.72709 10.3792 10.3461L9.84867 10.6445C10.0255 9.89289 10.0366 9.24073 9.88183 8.68806C9.74919 8.13538 9.55023 7.62692 9.28494 7.16267C9.01966 6.67632 8.77648 6.17891 8.55541 5.67045C8.35645 5.13988 8.25697 4.54299 8.25697 3.87978C8.25697 2.9955 8.45593 2.26597 8.85386 1.69119C9.25179 1.11641 9.78235 0.696372 10.4456 0.431087C11.1088 0.143696 11.8162 0 12.5678 0ZM25.0362 8.35645C26.1858 8.35645 27.2137 8.677 28.1201 9.3181C29.0486 9.9371 29.7781 10.8545 30.3087 12.0704C30.8614 13.2863 31.1377 14.8006 31.1377 16.6134C31.1377 17.9398 30.9719 19.1999 30.6403 20.3937C30.3308 21.5654 29.8555 22.6044 29.2144 23.5108C28.5954 24.3951 27.8106 25.1025 26.86 25.6331C25.9094 26.1415 24.793 26.3958 23.5108 26.3958C22.5381 26.3958 21.6759 26.1858 20.9243 25.7657C20.1948 25.3457 19.6642 24.8372 19.3326 24.2403L19.6642 23.7429C19.9737 24.2735 20.3827 24.7156 20.8911 25.0693C21.4217 25.4231 22.0628 25.5999 22.8144 25.5999C23.9861 25.5999 24.8925 25.2352 25.5336 24.5056C26.1747 23.754 26.6279 22.7481 26.8932 21.488C27.1806 20.2058 27.3243 18.7578 27.3243 17.144C27.3243 15.3312 27.1806 13.8722 26.8932 12.7668C26.6279 11.6393 26.23 10.8214 25.6994 10.3129C25.1909 9.78235 24.5498 9.51707 23.7761 9.51707C22.8034 9.51707 21.908 9.915 21.0901 10.7108C20.2942 11.5067 19.7968 12.7005 19.5979 14.2922L19.2663 13.5958C19.5758 11.9378 20.25 10.6556 21.2891 9.74919C22.3281 8.8207 23.5771 8.35645 25.0362 8.35645Z" fill="#292929"/>
</g>
</svg>
